<?xml version="1.0" encoding="UTF-8"?> <svg xmlns="http://www.w3.org/2000/svg" width="500" height="500" viewBox="0 0 64 64"><path d="M32 10a22 22 0 1022 22 22 22 0 00-22-22zm17.3 16l1.6-.6a19.8 19.8 0 011 5.6H50v2h2a19.8 19.8 0 01-1.1 5.6l-1.6-.5-.6 1.9 1.4.4a20 20 0 01-3.3 5l-1-1.1-1.5 1.4 1.1 1.1a20 20 0 01-4.8 3.2l-.7-1.4-1.8.8.7 1.4a19.8 19.8 0 01-2.5.7A5 5 0 0037 49v-5h1v-2H26v2h1v5a5 5 0 00.7 2.5 19.8 19.8 0 01-2.5-.7l.7-1.4-1.8-.8-.7 1.4a20 20 0 01-4.8-3.2l1.1-1-1.4-1.5-1.1 1.1a20 20 0 01-3.3-5l1.4-.5-.6-1.9-1.6.6a19.8 19.8 0 01-1-5.6H14v-2h-2a19.8 19.8 0 011.1-5.6l1.6.5.6-1.9-1.4-.4a20 20 0 013.3-5l1 1.1 1.5-1.4-1-1.1a20 20 0 014.7-3.2l.7 1.4 1.8-.9-.7-1.3a19.8 19.8 0 015.8-1.1V14h2v-2a19.8 19.8 0 015.8 1.2l-.7 1.4 1.8.8.7-1.4a20 20 0 014.8 3.2l-1.1 1 1.4 1.5 1.1-1a20 20 0 013.3 4.9l-1.4.5zM29 49v-5h2v4h2v-4h2v5a3 3 0 01-6 0z"></path><path d="M54.7 2.3a1 1 0 00-1.4 0l-4 4a1 1 0 000 1.4L50.6 9 48 11.6a26 26 0 00-32 0L13.4 9l1.3-1.3a1 1 0 000-1.4l-4-4a1 1 0 00-1.4 0l-7 7a1 1 0 000 1.4l4 4a1 1 0 001.4 0L9 13.4l2.6 2.6A26 26 0 0016 52.5L12.6 56H11a1 1 0 00-1 1v4a1 1 0 001 1h8a1 1 0 001-1v-3.6l1.6-1.6a26 26 0 0020.8 0l1.6 1.6V61a1 1 0 001 1h8a1 1 0 001-1v-4a1 1 0 00-1-1h-1.6L48 52.5A26 26 0 0052.4 16l2.6-2.6 1.3 1.3a1 1 0 001.4 0l4-4a1 1 0 000-1.4zM7 12.6L4.4 10 10 4.4 12.6 7zm3.4-.6l1.6-1.6 2.4 2.4-1.5 1.6zM18 60h-6v-2h6zm.6-4h-3.2l2.3-2.3 2 1.2zM52 60h-6v-2h6zm-3.4-4h-3.2l-1-1.1a26 26 0 001.9-1.2zM32 56a24 24 0 1124-24 24 24 0 01-24 24zm19.1-41.6L49.6 13l2.4-2.5 1.6 1.6zm5.9-1.8L51.4 7 54 4.4l5.6 5.6z"></path><path d="M35 32a3 3 0 00-6 0 3 3 0 00.3 1.3l-7.5 7.5 1.4 1.4 7.5-7.5a2.9 2.9 0 002.6 0l7 7 1.4-1.4-7-7A3 3 0 0035 32zm-4 0a1 1 0 111 1 1 1 0 01-1-1zM26.3 27.7l1.4-1.4-2.3-2.3 2.3-2.3-1.4-1.4-2.3 2.3-2.3-2.3-1.4 1.4 2.3 2.3-2.3 2.3 1.4 1.4 2.3-2.3 2.3 2.3zM42.3 20.3L40 22.6l-2.3-2.3-1.4 1.4 2.3 2.3-2.3 2.3 1.4 1.4 2.3-2.3 2.3 2.3 1.4-1.4-2.3-2.3 2.3-2.3-1.4-1.4zM47 28h2v2h-2zM44 31h2v2h-2z"></path></svg> 